<?xml version="1.0" encoding="UTF-8"?>
<svg xmlns="http://www.w3.org/2000/svg" width="45.000" height="52.000" viewBox="0.0 0.0 45.000 52.000" version="1.1">
  <desc>Produce by Acme CAD Converter</desc>
<path d="M0.08 38.94L22.5 51.89 44.92 38.94 44.92 13.06 22.5 0.11 0.08 13.06 0.08 38.94" fill="none" stroke="black" stroke-width="0.3"/>
<path d="M11.29 45.41L22.5 26" fill="none" stroke="black" stroke-width="0.3"/>
<path d="M11.29 45.41L6.98 42.93" fill="none" stroke="black" stroke-width="0.3"/>
<path d="M22.5 26L33.71 6.59" fill="none" stroke="black" stroke-width="0.3"/>
<path d="M11.29 45.41L13.45 46.66" fill="none" stroke="black" stroke-width="0.3"/>
<path d="M13.45 46.66L35.86 7.83" fill="none" stroke="black" stroke-width="0.3"/>
<path d="M11.29 6.59L33.71 45.41" fill="none" stroke="black" stroke-width="0.3"/>
<path d="M44.92 26L0.08 26" fill="none" stroke="black" stroke-width="0.3"/>
<path d="M11.29 45.41L9.14 44.17" fill="none" stroke="black" stroke-width="0.3"/>
<path d="M9.14 44.17L31.55 5.34" fill="none" stroke="black" stroke-width="0.3"/>
<path d="M0.08 26L0.08 23.51" fill="none" stroke="black" stroke-width="0.3"/>
<path d="M0.08 23.51L44.92 23.51" fill="none" stroke="black" stroke-width="0.3"/>
<path d="M44.92 23.51L44.92 28.49" fill="none" stroke="black" stroke-width="0.3"/>
<path d="M44.92 28.49L0.08 28.49" fill="none" stroke="black" stroke-width="0.3"/>
<path d="M11.29 6.59L13.45 5.34" fill="none" stroke="black" stroke-width="0.3"/>
<path d="M13.45 5.34L35.86 44.17" fill="none" stroke="black" stroke-width="0.3"/>
<path d="M35.86 44.17L31.55 46.66" fill="none" stroke="black" stroke-width="0.3"/>
<path d="M31.55 46.66L9.14 7.83" fill="none" stroke="black" stroke-width="0.3"/>
</svg>
